STARTFONT 2.1
FONT fg-30
COMMENT
COMMENT GENERATED BY "../snftobdf 1.0"
COMMENT AUTHOR mleisher@nmsu.edu (Mark Leisher)
COMMENT DATE Wed Dec 19 17:00:09 1990
COMMENT
SIZE 19 75 75
FONTBOUNDINGBOX 19 30 0 -5
STARTPROPERTIES 10
COPYRIGHT "Public domain font.  Share and enjoy."
FAMILY_NAME "fg-30.bdf"
POINT_SIZE 280
WEIGHT 179
RESOLUTION 103
X_HEIGHT 25
QUAD_WIDTH 19
DEFAULT_CHAR 0
FONT_ASCENT 25
FONT_DESCENT 5
ENDPROPERTIES
CHARS 127
STARTCHAR C001
ENCODING 1
SWIDTH 963 0
DWIDTH 19 0
BBX 19 30 0 -5
BITMAP
030000
030000
030000
030000
030000
030000
030000
030000
030000
030000
030000
030000
030000
c30c00
e31c00
e31c00
733800
733800
3b7000
1fe000
1fe000
0fc000
078000
030000
000000
000000
000000
000000
000000
000000
ENDCHAR
STARTCHAR C002
ENCODING 2
SWIDTH 963 0
DWIDTH 19 0
BBX 19 30 0 -5
BITMAP
000000
000000
000000
000000
000000
000000
000000
000000
000700
1f0600
3f8e00
7fcc00
407c00
c07800
c07800
c03800
c03800
c03800
c03800
c07800
407c00
60cc00
3f8f00
1f0100
000000
000000
000000
000000
000000
000000
ENDCHAR
STARTCHAR C003
ENCODING 3
SWIDTH 963 0
DWIDTH 19 0
BBX 19 30 0 -5
BITMAP
003c00
00fc00
01fe00
03ff00
070700
0e0700
0c0700
180600
180e00
300c00
301800
303000
707000
703e00
f00e00
f00780
f00780
f00780
f00780
f00780
fc0700
fffe00
fffc00
e7f800
e00000
e00000
e00000
e00000
e00000
e00000
ENDCHAR
STARTCHAR C004
ENCODING 4
SWIDTH 963 0
DWIDTH 19 0
BBX 19 30 0 -5
BITMAP
000000
000000
000000
000000
000000
000000
000000
000000
000000
01c000
03e000
063000
063000
0e3800
0c1800
1c1c00
180c00
380e00
300600
700700
600300
e00380
c00180
c00180
000000
000000
000000
000000
000000
000000
ENDCHAR
STARTCHAR C005
ENCODING 5
SWIDTH 963 0
DWIDTH 19 0
BBX 19 30 0 -5
BITMAP
000000
000000
000000
000000
000000
000000
000000
000000
000000
000000
000000
000000
ffff00
ffff00
000300
000300
000300
000300
000300
000000
000000
000000
000000
000000
000000
000000
000000
000000
000000
000000
ENDCHAR
STARTCHAR C006
ENCODING 6
SWIDTH 963 0
DWIDTH 19 0
BBX 19 30 0 -5
BITMAP
000000
000000
000000
000000
000000
000000
000000
000000
000000
07e000
1e0000
380000
700000
600000
e00000
e00000
ff0000
e00000
e00000
600000
700000
380000
1e0000
07e000
000000
000000
000000
000000
000000
000000
ENDCHAR
STARTCHAR C007
ENCODING 7
SWIDTH 963 0
DWIDTH 19 0
BBX 19 30 0 -5
BITMAP
000000
000000
000000
000000
000000
000000
000000
000000
000300
ffff00
ffff00
ce3c00
8e3800
0e3800
0c3800
1c3800
1c1800
181800
181c00
300c00
300c00
300e00
300600
300600
000000
000000
000000
000000
000000
000000
ENDCHAR
STARTCHAR C010
ENCODING 8
SWIDTH 963 0
DWIDTH 19 0
BBX 19 30 0 -5
BITMAP
000000
000000
000000
7e0000
7f0000
070000
038000
018000
01c000
00c000
00e000
00e000
00e000
00f000
01f000
03f000
073800
0f1800
1e1c00
3c0c00
380e00
600600
e00700
e00780
000000
000000
000000
000000
000000
000000
ENDCHAR
STARTCHAR C011
ENCODING 9
SWIDTH 963 0
DWIDTH 19 0
BBX 19 30 0 -5
BITMAP
000000
000000
000000
000000
000300
e00700
f00f00
781e00
3c3c00
1e7800
0ff000
03e000
03c000
03c000
03c000
03e000
03e000
03e000
03e000
03e000
01e000
01c000
000000
000000
000000
000000
000000
000000
000000
000000
ENDCHAR
STARTCHAR C012
ENCODING 10
SWIDTH 963 0
DWIDTH 19 0
BBX 19 30 0 -5
BITMAP
000000
000000
000000
000000
07f000
1ffe00
3ffe00
300e00
300000
380000
3e0000
07c000
07f000
1ff800
3ffc00
781c00
e00c00
e00c00
e00c00
e01c00
783c00
7ff800
7ff800
0fe000
000000
000000
000000
000000
000000
000000
ENDCHAR
STARTCHAR C013
ENCODING 11
SWIDTH 963 0
DWIDTH 19 0
BBX 19 30 0 -5
BITMAP
030000
078000
0fc000
1fe000
1fe000
3b7000
733800
733800
e31c00
e31c00
c30c00
830400
030000
030000
030000
030000
030000
030000
030000
030000
030000
030000
030000
030000
000000
000000
000000
000000
000000
000000
ENDCHAR
STARTCHAR C014
ENCODING 12
SWIDTH 963 0
DWIDTH 19 0
BBX 19 30 0 -5
BITMAP
000000
018000
018000
018000
018000
018000
018000
018000
ffff00
ffff00
ffff00
018000
018000
018000
018000
018000
018000
018000
000000
000000
ffff00
ffff00
ffff00
000000
000000
000000
000000
000000
000000
000000
ENDCHAR
STARTCHAR C015
ENCODING 13
SWIDTH 963 0
DWIDTH 19 0
BBX 19 30 0 -5
BITMAP
000000
000000
000000
000000
000000
03e000
0ff800
1ddc00
39ce00
61c300
61c300
c1c180
ffff80
ffff80
ffff80
c1c180
61c300
61c300
39ce00
1ddc00
0ff800
03e000
000000
000000
000000
000000
000000
000000
000000
000000
ENDCHAR
STARTCHAR C016
ENCODING 14
SWIDTH 963 0
DWIDTH 19 0
BBX 19 30 0 -5
BITMAP
000000
000000
000000
000000
000000
000000
000000
000000
000000
000000
000000
3c1e00
7e3f00
e3e180
e1c180
e1c180
e1c180
e1c180
e3e180
7e3f00
3c1e00
000000
000000
000000
000000
000000
000000
000000
000000
000000
ENDCHAR
STARTCHAR C017
ENCODING 15
SWIDTH 963 0
DWIDTH 19 0
BBX 19 30 0 -5
BITMAP
078000
1fe000
1ff000
1c1c00
000c00
000c00
000c00
000c00
000c00
000c00
000c00
1f8c00
3ffc00
7ffc00
e01c00
e01c00
e01c00
e01c00
e01c00
e01800
607000
7fe000
7fc000
0f8000
000000
000000
000000
000000
000000
000000
ENDCHAR
STARTCHAR C020
ENCODING 16
SWIDTH 963 0
DWIDTH 19 0
BBX 19 30 0 -5
BITMAP
000000
000000
000000
000000
000000
000000
000000
000000
03ff00
0fff00
1fff00
780000
700000
e00000
c00000
c00000
c00000
c00000
e00000
f00000
780000
3fff00
0fff00
03ff00
000000
000000
000000
000000
000000
000000
ENDCHAR
STARTCHAR C021
ENCODING 17
SWIDTH 963 0
DWIDTH 19 0
BBX 19 30 0 -5
BITMAP
000000
000000
000000
000000
000000
000000
000000
000000
ffe000
fff000
fffc00
001e00
000f00
000780
000380
000380
000380
000380
000780
000f00
001e00
fffc00
fff800
ffe000
000000
000000
000000
000000
000000
000000
ENDCHAR
STARTCHAR C022
ENCODING 18
SWIDTH 963 0
DWIDTH 19 0
BBX 19 30 0 -5
BITMAP
000000
000000
000000
000000
078000
1fe000
387000
f03c00
e01c00
e01c00
e01c00
e01c00
e01c00
e01c00
e01c00
e01c00
e01c00
e01c00
e01c00
e01c00
e01c00
e01c00
e01c00
e01c00
000000
000000
000000
000000
000000
000000
ENDCHAR
STARTCHAR C023
ENCODING 19
SWIDTH 963 0
DWIDTH 19 0
BBX 19 30 0 -5
BITMAP
000000
000000
000000
000000
e01c00
e01c00
e01c00
e01c00
e01c00
e01c00
e01c00
e01c00
e01c00
e01c00
e01c00
e01c00
e01c00
e01c00
e01c00
e01c00
f03c00
387000
1fe000
078000
000000
000000
000000
000000
000000
000000
ENDCHAR
STARTCHAR C024
ENCODING 20
SWIDTH 963 0
DWIDTH 19 0
BBX 19 30 0 -5
BITMAP
c00300
c00300
e00700
600600
600600
700600
300c00
300c00
3ffc00
1ff800
1ff800
1c3800
1c3800
0e7000
0e7000
0e7000
066000
07e000
03c000
03c000
03c000
018000
018000
018000
000000
000000
000000
000000
000000
000000
ENDCHAR
STARTCHAR C025
ENCODING 21
SWIDTH 963 0
DWIDTH 19 0
BBX 19 30 0 -5
BITMAP
ffff80
ffff00
000700
000700
000700
000700
000700
000700
000700
000700
000700
03ff00
03ff00
000700
000700
000700
000700
000700
000700
000700
000700
000700
ffff00
ffff80
000000
000000
000000
000000
000000
000000
ENDCHAR
STARTCHAR C026
ENCODING 22
SWIDTH 963 0
DWIDTH 19 0
BBX 19 30 0 -5
BITMAP
000000
000000
000000
000000
000000
000000
000000
000000
000000
03e000
0ff800
180c00
3c1e00
663100
67f100
e3e180
e1c180
e3e180
67f100
7e3f00
3c1e00
180c00
0ff800
03e000
000000
000000
000000
000000
000000
000000
ENDCHAR
STARTCHAR C027
ENCODING 23
SWIDTH 963 0
DWIDTH 19 0
BBX 19 30 0 -5
BITMAP
000000
000000
000000
000000
000000
000000
000000
000000
000000
000000
0c1800
1c1c00
180e00
300600
7fff00
ffff80
7fff00
300600
180e00
1c1c00
0c1800
000000
000000
000000
000000
000000
000000
000000
000000
000000
ENDCHAR
STARTCHAR C030
ENCODING 24
SWIDTH 963 0
DWIDTH 19 0
BBX 19 30 0 -5
BITMAP
000000
000000
000000
000000
000000
000000
000000
000000
000000
000000
0c0000
180000
300000
600000
ffff00
ffff00
ffff00
600000
300000
180000
0c0000
000000
000000
000000
000000
000000
000000
000000
000000
000000
ENDCHAR
STARTCHAR C031
ENCODING 25
SWIDTH 963 0
DWIDTH 19 0
BBX 19 30 0 -5
BITMAP
000000
000000
000000
000000
000000
000000
000000
000000
000000
000000
003800
001c00
000e00
000700
ffff80
ffff80
ffff80
000700
000e00
001c00
003800
000000
000000
000000
000000
000000
000000
000000
000000
000000
ENDCHAR
STARTCHAR C032
ENCODING 26
SWIDTH 963 0
DWIDTH 19 0
BBX 19 30 0 -5
BITMAP
000000
000000
000000
000000
000000
000000
000000
000000
000000
001c00
003800
007000
fffc00
fffc00
01c000
038000
038000
fffc00
fffc00
380000
700000
e00000
000000
000000
000000
000000
000000
000000
000000
000000
ENDCHAR
STARTCHAR C033
ENCODING 27
SWIDTH 963 0
DWIDTH 19 0
BBX 19 30 0 -5
BITMAP
000000
000000
000000
030000
030000
078000
078000
0fc000
1fe000
3cf000
787800
f03c00
f03c00
f03c00
787800
3cf000
1fe000
0fc000
078000
078000
030000
030000
000000
000000
000000
000000
000000
000000
000000
000000
ENDCHAR
STARTCHAR C034
ENCODING 28
SWIDTH 963 0
DWIDTH 19 0
BBX 19 30 0 -5
BITMAP
000000
000000
000000
000000
000000
000c00
003c00
00f000
03e000
0f8000
3e0000
f80000
f80000
3e0000
1f0000
07c000
01f000
007c00
000c00
000000
000000
000000
fffc00
fffc00
000000
000000
000000
000000
000000
000000
ENDCHAR
STARTCHAR C035
ENCODING 29
SWIDTH 963 0
DWIDTH 19 0
BBX 19 30 0 -5
BITMAP
000000
000000
000000
000000
000000
c00000
f00000
3c0000
1f0000
07c000
01f000
007c00
007c00
01f000
03e000
0f8000
3e0000
f80000
c00000
000000
000000
000000
fffc00
fffc00
000000
000000
000000
000000
000000
000000
ENDCHAR
STARTCHAR C036
ENCODING 30
SWIDTH 963 0
DWIDTH 19 0
BBX 19 30 0 -5
BITMAP
000000
000000
000000
000000
000000
000000
000000
000000
000000
000000
fffc00
fffc00
000000
000000
000000
fffc00
fffc00
000000
000000
000000
fffc00
fffc00
000000
000000
000000
000000
000000
000000
000000
000000
ENDCHAR
STARTCHAR C037
ENCODING 31
SWIDTH 963 0
DWIDTH 19 0
BBX 19 30 0 -5
BITMAP
000000
000000
000000
000000
000000
000000
000000
000000
000000
c00180
c00180
e00380
600300
700700
300600
380e00
180c00
1c1c00
0c1800
0e3800
063000
063000
03e000
01c000
000000
000000
000000
000000
000000
000000
ENDCHAR
STARTCHAR C040
ENCODING 32
SWIDTH 963 0
DWIDTH 19 0
BBX 19 30 0 -5
BITMAP
000000
000000
000000
000000
000000
000000
000000
000000
000000
000000
000000
000000
000000
000000
000000
000000
000000
000000
000000
000000
000000
000000
000000
000000
000000
000000
000000
000000
000000
000000
ENDCHAR
STARTCHAR C041
ENCODING 33
SWIDTH 963 0
DWIDTH 19 0
BBX 19 30 0 -5
BITMAP
c00000
c00000
c00000
c00000
c00000
c00000
c00000
c00000
c00000
c00000
c00000
c00000
c00000
c00000
c00000
c00000
c00000
000000
000000
000000
c00000
c00000
c00000
c00000
000000
000000
000000
000000
000000
000000
ENDCHAR
STARTCHAR C042
ENCODING 34
SWIDTH 963 0
DWIDTH 19 0
BBX 19 30 0 -5
BITMAP
e38000
e38000
e38000
e38000
e38000
e38000
e38000
e38000
e38000
e38000
000000
000000
000000
000000
000000
000000
000000
000000
000000
000000
000000
000000
000000
000000
000000
000000
000000
000000
000000
000000
ENDCHAR
STARTCHAR C043
ENCODING 35
SWIDTH 963 0
DWIDTH 19 0
BBX 19 30 0 -5
BITMAP
030300
030300
030300
070300
0e0700
0e0700
7fff00
7fff00
1c0c00
1c0c00
1c0c00
1c0c00
303800
303800
303800
303800
fffe00
fffe00
e07000
e07000
c0e000
c0c000
c0c000
c0c000
000000
000000
000000
000000
000000
000000
ENDCHAR
STARTCHAR C044
ENCODING 36
SWIDTH 963 0
DWIDTH 19 0
BBX 19 30 0 -5
BITMAP
0cc000
0cc000
1fe000
3ff000
7cf800
ecfc00
eccc00
ecc000
ecc000
fcc000
7cc000
3fc000
1ff000
0cf800
0cfc00
0cdc00
0cdc00
ccdc00
ecdc00
7cf800
3ff000
1fe000
0cc000
0cc000
000000
000000
000000
000000
000000
000000
ENDCHAR
STARTCHAR C045
ENCODING 37
SWIDTH 963 0
DWIDTH 19 0
BBX 19 30 0 -5
BITMAP
000700
000700
3e0600
7f0e00
e30c00
e31c00
e31800
7f3000
3e3000
007000
006000
00e000
00c000
01c000
018000
038000
031e00
073f00
066180
0c6180
0c6180
186100
183e00
181c00
000000
000000
000000
000000
000000
000000
ENDCHAR
STARTCHAR C046
ENCODING 38
SWIDTH 963 0
DWIDTH 19 0
BBX 19 30 0 -5
BITMAP
01e000
0ff000
0e3800
0c1c00
1c1c00
1c1c00
1c3800
0e7800
07c000
07c000
1f8000
3f8000
73c000
e1e000
e0e300
e0f300
e07b00
e07b00
e03e00
f03e00
783f00
7fff00
3fe300
0fc000
000000
000000
000000
000000
000000
000000
ENDCHAR
STARTCHAR C047
ENCODING 39
SWIDTH 963 0
DWIDTH 19 0
BBX 19 30 0 -5
BITMAP
780000
fc0000
fc0000
7c0000
3c0000
3c0000
380000
300000
200000
000000
000000
000000
000000
000000
000000
000000
000000
000000
000000
000000
000000
000000
000000
000000
000000
000000
000000
000000
000000
000000
ENDCHAR
STARTCHAR C050
ENCODING 40
SWIDTH 963 0
DWIDTH 19 0
BBX 19 30 0 -5
BITMAP
0e0000
1c0000
380000
300000
700000
700000
700000
700000
f00000
f00000
f00000
f00000
f00000
f00000
f00000
f00000
700000
700000
700000
700000
300000
380000
1c0000
0e0000
000000
000000
000000
000000
000000
000000
ENDCHAR
STARTCHAR C051
ENCODING 41
SWIDTH 963 0
DWIDTH 19 0
BBX 19 30 0 -5
BITMAP
e00000
700000
380000
180000
1c0000
1c0000
1c0000
1c0000
1e0000
1e0000
1e0000
1e0000
1e0000
1e0000
1e0000
1e0000
1c0000
1c0000
1c0000
1c0000
180000
380000
700000
e00000
000000
000000
000000
000000
000000
000000
ENDCHAR
STARTCHAR C052
ENCODING 42
SWIDTH 963 0
DWIDTH 19 0
BBX 19 30 0 -5
BITMAP
000000
000000
000000
000000
000000
000000
018000
03c000
c3c300
e18700
f18f00
f18f00
3ffc00
1ff800
0ff000
0ff000
1ff800
3ffc00
f18f00
f18f00
e18700
c1c300
03c000
018000
000000
000000
000000
000000
000000
000000
ENDCHAR
STARTCHAR C053
ENCODING 43
SWIDTH 963 0
DWIDTH 19 0
BBX 19 30 0 -5
BITMAP
000000
000000
000000
000000
000000
000000
000000
018000
018000
018000
018000
018000
018000
018000
ffff00
ffff00
ffff00
018000
018000
018000
018000
018000
018000
018000
000000
000000
000000
000000
000000
000000
ENDCHAR
STARTCHAR C054
ENCODING 44
SWIDTH 963 0
DWIDTH 19 0
BBX 19 30 0 -5
BITMAP
000000
000000
000000
000000
000000
000000
000000
000000
000000
000000
000000
000000
000000
000000
000000
000000
000000
000000
000000
000000
780000
fc0000
fc0000
7c0000
3c0000
380000
300000
200000
000000
000000
ENDCHAR
STARTCHAR C055
ENCODING 45
SWIDTH 963 0
DWIDTH 19 0
BBX 19 30 0 -5
BITMAP
000000
000000
000000
000000
000000
000000
000000
000000
000000
000000
000000
000000
000000
000000
fffc00
fffc00
fffc00
000000
000000
000000
000000
000000
000000
000000
000000
000000
000000
000000
000000
000000
ENDCHAR
STARTCHAR C056
ENCODING 46
SWIDTH 963 0
DWIDTH 19 0
BBX 19 30 0 -5
BITMAP
000000
000000
000000
000000
000000
000000
000000
000000
000000
000000
000000
000000
000000
000000
000000
000000
000000
000000
780000
fc0000
fc0000
fc0000
fc0000
780000
000000
000000
000000
000000
000000
000000
ENDCHAR
STARTCHAR C057
ENCODING 47
SWIDTH 963 0
DWIDTH 19 0
BBX 19 30 0 -5
BITMAP
001e00
001c00
001c00
003800
003800
007000
007000
00e000
00e000
01c000
01c000
038000
038000
070000
070000
0e0000
0e0000
1c0000
1c0000
380000
380000
700000
f00000
e00000
000000
000000
000000
000000
000000
000000
ENDCHAR
STARTCHAR C060
ENCODING 48
SWIDTH 963 0
DWIDTH 19 0
BBX 19 30 0 -5
BITMAP
07f000
0ff800
1ffc00
3c1f80
380f80
300f80
300f00
701f00
703f00
707f00
70f700
71e700
73c700
778700
7f0700
7e0700
7c0700
780700
f80600
f80e00
fc1e00
1ffc00
0ff800
07f000
000000
000000
000000
000000
000000
000000
ENDCHAR
STARTCHAR C061
ENCODING 49
SWIDTH 963 0
DWIDTH 19 0
BBX 19 30 0 -5
BITMAP
1e0000
3e0000
7e0000
ee0000
0e0000
0e0000
0e0000
0e0000
0e0000
0e0000
0e0000
0e0000
0e0000
0e0000
0e0000
0e0000
0e0000
0e0000
0e0000
0e0000
0e0000
0e0000
fff000
fff000
000000
000000
000000
000000
000000
000000
ENDCHAR
STARTCHAR C062
ENCODING 50
SWIDTH 963 0
DWIDTH 19 0
BBX 19 30 0 -5
BITMAP
1ff000
7ffc00
7ffc00
c00e00
c00600
c00600
000600
000600
000e00
001800
003000
006000
00c000
018000
038000
060000
0c0000
180000
300000
600000
e00000
fffe00
fffe00
fffe00
000000
000000
000000
000000
000000
000000
ENDCHAR
STARTCHAR C063
ENCODING 51
SWIDTH 963 0
DWIDTH 19 0
BBX 19 30 0 -5
BITMAP
0ff000
3ffe00
3ffe00
600600
e00700
e00700
000700
000600
000e00
000c00
001800
03f800
03f800
001800
000c00
000e00
000600
000700
e00700
e00700
600600
3ffe00
3ffe00
0ff000
000000
000000
000000
000000
000000
000000
ENDCHAR
STARTCHAR C064
ENCODING 52
SWIDTH 963 0
DWIDTH 19 0
BBX 19 30 0 -5
BITMAP
018000
038000
038000
070000
060000
0e0000
0c0000
1c0000
187000
387000
307000
607000
607000
c07000
c07000
c07000
fffe00
fffe00
007000
007000
007000
007000
007000
007000
000000
000000
000000
000000
000000
000000
ENDCHAR
STARTCHAR C065
ENCODING 53
SWIDTH 963 0
DWIDTH 19 0
BBX 19 30 0 -5
BITMAP
fffe00
fffe00
fffe00
e00000
e00000
e00000
e00000
e00000
e00000
e00000
e00000
fff000
fffe00
000e00
000600
000700
000700
000700
e00700
e00700
600600
3ffe00
3ffe00
0ff000
000000
000000
000000
000000
000000
000000
ENDCHAR
STARTCHAR C066
ENCODING 54
SWIDTH 963 0
DWIDTH 19 0
BBX 19 30 0 -5
BITMAP
1fe000
7ffc00
7ffc00
e00c00
c00600
c00600
c00000
c00000
c00000
c00000
c00000
c78000
dfe000
fffc00
f01c00
e00c00
c00e00
c00e00
c00e00
c00e00
e00c00
7ffc00
7ffc00
1fe000
000000
000000
000000
000000
000000
000000
ENDCHAR
STARTCHAR C067
ENCODING 55
SWIDTH 963 0
DWIDTH 19 0
BBX 19 30 0 -5
BITMAP
fffe00
fffe00
000e00
000e00
000c00
000c00
001800
003800
003000
007000
006000
00e000
00c000
01c000
018000
038000
030000
070000
060000
0e0000
0c0000
1c0000
1c0000
1c0000
000000
000000
000000
000000
000000
000000
ENDCHAR
STARTCHAR C070
ENCODING 56
SWIDTH 963 0
DWIDTH 19 0
BBX 19 30 0 -5
BITMAP
0fc000
3ff000
3ff000
701800
601800
601800
601800
303000
387000
3ff000
0fc000
078000
1fe000
fffc00
f03c00
c00c00
c00c00
c00c00
c00c00
c00c00
c00c00
fffc00
fffc00
1fe000
000000
000000
000000
000000
000000
000000
ENDCHAR
STARTCHAR C071
ENCODING 57
SWIDTH 963 0
DWIDTH 19 0
BBX 19 30 0 -5
BITMAP
0ff000
3ffe00
3ffe00
600600
600700
600700
600700
600700
600700
381f00
3fff00
0ff700
03c700
000700
000700
000700
000700
000700
e00700
e00700
600600
3ffe00
3ffe00
0ff000
000000
000000
000000
000000
000000
000000
ENDCHAR
STARTCHAR C072
ENCODING 58
SWIDTH 963 0
DWIDTH 19 0
BBX 19 30 0 -5
BITMAP
000000
000000
000000
000000
000000
000000
000000
000000
000000
780000
fc0000
fc0000
fc0000
780000
000000
000000
000000
000000
000000
780000
fc0000
fc0000
fc0000
780000
000000
000000
000000
000000
000000
000000
ENDCHAR
STARTCHAR C073
ENCODING 59
SWIDTH 963 0
DWIDTH 19 0
BBX 19 30 0 -5
BITMAP
000000
000000
000000
000000
000000
000000
000000
000000
000000
000000
780000
fc0000
fc0000
fc0000
780000
000000
000000
000000
000000
780000
fc0000
fc0000
7c0000
3c0000
3c0000
380000
300000
200000
000000
000000
ENDCHAR
STARTCHAR C074
ENCODING 60
SWIDTH 963 0
DWIDTH 19 0
BBX 19 30 0 -5
BITMAP
000000
000000
000000
000000
000000
000000
000000
000000
000c00
001c00
007c00
01f000
078000
3e0000
f80000
f80000
f80000
3e0000
078000
01f000
007c00
001c00
000c00
000000
000000
000000
000000
000000
000000
000000
ENDCHAR
STARTCHAR C075
ENCODING 61
SWIDTH 963 0
DWIDTH 19 0
BBX 19 30 0 -5
BITMAP
000000
000000
000000
000000
000000
000000
000000
000000
000000
000000
000000
000000
fffc00
fffc00
000000
000000
000000
fffc00
fffc00
000000
000000
000000
000000
000000
000000
000000
000000
000000
000000
000000
ENDCHAR
STARTCHAR C076
ENCODING 62
SWIDTH 963 0
DWIDTH 19 0
BBX 19 30 0 -5
BITMAP
000000
000000
000000
000000
000000
000000
000000
000000
c00000
e00000
f80000
3e0000
078000
01f000
007c00
007c00
007c00
01f000
078000
3e0000
f80000
e00000
c00000
000000
000000
000000
000000
000000
000000
000000
ENDCHAR
STARTCHAR C077
ENCODING 63
SWIDTH 963 0
DWIDTH 19 0
BBX 19 30 0 -5
BITMAP
0fe000
1ff000
3ff800
781c00
f00e00
e00e00
000e00
000e00
000e00
001c00
003800
007000
00e000
01c000
078000
070000
070000
070000
000000
000000
078000
078000
078000
078000
000000
000000
000000
000000
000000
000000
ENDCHAR
STARTCHAR C100
ENCODING 64
SWIDTH 963 0
DWIDTH 19 0
BBX 19 30 0 -5
BITMAP
000000
000000
000000
000000
000000
000000
000000
000000
07f800
3ffe00
700f00
e00780
e00380
e3e380
e7fb80
e61b80
e61b80
e7ff00
e3fe00
e00000
f00000
780780
3fff00
0ffc00
000000
000000
000000
000000
000000
000000
ENDCHAR
STARTCHAR C101
ENCODING 65
SWIDTH 963 0
DWIDTH 19 0
BBX 19 30 0 -5
BITMAP
010000
038000
038000
07c000
07c000
0ee000
0ee000
0c6000
1c7000
1c7000
183000
381800
381800
381800
7ffc00
7ffc00
7ffc00
600c00
600c00
e00e00
c00600
c00600
c00600
c00600
000000
000000
000000
000000
000000
000000
ENDCHAR
STARTCHAR C102
ENCODING 66
SWIDTH 963 0
DWIDTH 19 0
BBX 19 30 0 -5
BITMAP
ffe000
fffc00
e01c00
e00c00
e00c00
e00c00
e00c00
e00c00
e00c00
e00c00
e01c00
fffc00
fffc00
e00e00
e00600
e00700
e00700
e00700
e00700
e00700
e00600
e00e00
fffe00
fff000
000000
000000
000000
000000
000000
000000
ENDCHAR
STARTCHAR C103
ENCODING 67
SWIDTH 963 0
DWIDTH 19 0
BBX 19 30 0 -5
BITMAP
1fe000
7ffc00
7ffc00
e00c00
c00600
c00600
c00000
c00000
c00000
c00000
c00000
c00000
c00000
c00000
c00000
c00000
c00000
c00000
c00600
c00600
e00c00
7ffc00
7ffc00
1fe000
000000
000000
000000
000000
000000
000000
ENDCHAR
STARTCHAR C104
ENCODING 68
SWIDTH 963 0
DWIDTH 19 0
BBX 19 30 0 -5
BITMAP
fff000
fffe00
e00e00
e00600
e00700
e00700
e00700
e00700
e00700
e00700
e00700
e00700
e00700
e00700
e00700
e00700
e00700
e00700
e00700
e00700
e00600
e00e00
fffe00
fff000
000000
000000
000000
000000
000000
000000
ENDCHAR
STARTCHAR C105
ENCODING 69
SWIDTH 963 0
DWIDTH 19 0
BBX 19 30 0 -5
BITMAP
fffe00
fffe00
c00000
c00000
c00000
c00000
c00000
c00000
c00000
c00000
c00000
fff800
fff800
c00000
c00000
c00000
c00000
c00000
c00000
c00000
c00000
c00000
fffe00
fffe00
000000
000000
000000
000000
000000
000000
ENDCHAR
STARTCHAR C106
ENCODING 70
SWIDTH 963 0
DWIDTH 19 0
BBX 19 30 0 -5
BITMAP
fffe00
fffe00
c00000
c00000
c00000
c00000
c00000
c00000
c00000
c00000
c00000
fff800
fff800
c00000
c00000
c00000
c00000
c00000
c00000
c00000
c00000
c00000
c00000
c00000
000000
000000
000000
000000
000000
000000
ENDCHAR
STARTCHAR C107
ENCODING 71
SWIDTH 963 0
DWIDTH 19 0
BBX 19 30 0 -5
BITMAP
1fe000
7ffc00
7ffc00
e00c00
c00600
c00600
c00000
c00000
c00000
c00000
c00000
c00000
c00000
c07e00
c07e00
c07e00
c00600
c00600
c00600
c00600
e00c00
7ffc00
7ffc00
1fe000
000000
000000
000000
000000
000000
000000
ENDCHAR
STARTCHAR C110
ENCODING 72
SWIDTH 963 0
DWIDTH 19 0
BBX 19 30 0 -5
BITMAP
c00600
c00600
c00600
c00600
c00600
c00600
c00600
c00600
c00600
c00600
c00600
fffe00
fffe00
c00600
c00600
c00600
c00600
c00600
c00600
c00600
c00600
c00600
c00600
c00600
000000
000000
000000
000000
000000
000000
ENDCHAR
STARTCHAR C111
ENCODING 73
SWIDTH 963 0
DWIDTH 19 0
BBX 19 30 0 -5
BITMAP
ff0000
ff0000
180000
180000
180000
180000
180000
180000
180000
180000
180000
180000
180000
180000
180000
180000
180000
180000
180000
180000
180000
180000
ff0000
ff0000
000000
000000
000000
000000
000000
000000
ENDCHAR
STARTCHAR C112
ENCODING 74
SWIDTH 963 0
DWIDTH 19 0
BBX 19 30 0 -5
BITMAP
000600
000600
000600
000600
000600
000600
000600
000600
000600
000600
000600
000600
000600
000600
000600
000600
000600
000600
c00600
c00600
c00600
7ffc00
7ffc00
1ff000
000000
000000
000000
000000
000000
000000
ENDCHAR
STARTCHAR C113
ENCODING 75
SWIDTH 963 0
DWIDTH 19 0
BBX 19 30 0 -5
BITMAP
c00600
c00e00
c01e00
c03c00
c07800
c0f000
c1e000
c3c000
c78000
cf0000
fe0000
fc0000
f80000
f80000
fc0000
ce0000
c70000
c38000
c1c000
c0e000
c07000
c03c00
c01c00
c00c00
000000
000000
000000
000000
000000
000000
ENDCHAR
STARTCHAR C114
ENCODING 76
SWIDTH 963 0
DWIDTH 19 0
BBX 19 30 0 -5
BITMAP
c00000
c00000
c00000
c00000
c00000
c00000
c00000
c00000
c00000
c00000
c00000
c00000
c00000
c00000
c00000
c00000
c00000
c00000
c00000
c00000
c00000
c00000
fffe00
fffe00
000000
000000
000000
000000
000000
000000
ENDCHAR
STARTCHAR C115
ENCODING 77
SWIDTH 963 0
DWIDTH 19 0
BBX 19 30 0 -5
BITMAP
c00600
e00e00
f01e00
f83e00
fc7e00
def600
cee600
c7c600
c38600
c10600
c00600
c00600
c00600
c00600
c00600
c00600
c00600
c00600
c00600
c00600
c00600
c00600
c00600
c00600
000000
000000
000000
000000
000000
000000
ENDCHAR
STARTCHAR C116
ENCODING 78
SWIDTH 963 0
DWIDTH 19 0
BBX 19 30 0 -5
BITMAP
e00600
e00600
f00600
f00600
f80600
d80600
dc0600
ce0600
c60600
c60600
c30600
c30600
c18600
c18600
c0c600
c0c600
c0e600
c06600
c07600
c03e00
c01e00
c01e00
c00e00
c00e00
000000
000000
000000
000000
000000
000000
ENDCHAR
STARTCHAR C117
ENCODING 79
SWIDTH 963 0
DWIDTH 19 0
BBX 19 30 0 -5
BITMAP
1fe000
fffc00
fffc00
c00c00
c00c00
c00c00
c00c00
c00c00
c00c00
c00c00
c00c00
c00c00
c00c00
c00c00
c00c00
c00c00
c00c00
c00c00
c00c00
c00c00
c00c00
fffc00
fffc00
1fe000
000000
000000
000000
000000
000000
000000
ENDCHAR
STARTCHAR C120
ENCODING 80
SWIDTH 963 0
DWIDTH 19 0
BBX 19 30 0 -5
BITMAP
fff000
fffe00
e00e00
e00600
e00700
e00700
e00700
e00700
e00700
e00600
e00e00
fffe00
fff000
e00000
e00000
e00000
e00000
e00000
e00000
e00000
e00000
e00000
e00000
e00000
000000
000000
000000
000000
000000
000000
ENDCHAR
STARTCHAR C121
ENCODING 81
SWIDTH 963 0
DWIDTH 19 0
BBX 19 30 0 -5
BITMAP
1fe000
7ffc00
601c00
c00c00
c00e00
c00e00
c00e00
c00e00
c00e00
c00e00
c00e00
c00e00
c00e00
c00e00
c00e00
c00e00
c00e00
c00e00
c07e00
c07e00
603c00
7ffe00
7fff00
000700
000300
000000
000000
000000
000000
000000
ENDCHAR
STARTCHAR C122
ENCODING 82
SWIDTH 963 0
DWIDTH 19 0
BBX 19 30 0 -5
BITMAP
fff000
fffc00
c01c00
c00c00
c00600
c00600
c00600
c00600
c00600
c00e00
c00c00
fffc00
fff000
c01800
c01800
c01800
c01c00
c00c00
c00c00
c00c00
c00c00
c00e00
c00600
c00600
000000
000000
000000
000000
000000
000000
ENDCHAR
STARTCHAR C123
ENCODING 83
SWIDTH 963 0
DWIDTH 19 0
BBX 19 30 0 -5
BITMAP
0fe000
7ffc00
7ffc00
600e00
c00600
c00600
c00000
c00000
c00000
e00000
700000
7ff800
1ffc00
001c00
000e00
000600
000600
000600
c00600
c00600
e00c00
7ffc00
7ffc00
0fe000
000000
000000
000000
000000
000000
000000
ENDCHAR
STARTCHAR C124
ENCODING 84
SWIDTH 963 0
DWIDTH 19 0
BBX 19 30 0 -5
BITMAP
fffc00
fffc00
030000
030000
030000
030000
030000
030000
030000
030000
030000
030000
030000
030000
030000
030000
030000
030000
030000
030000
030000
030000
030000
030000
000000
000000
000000
000000
000000
000000
ENDCHAR
STARTCHAR C125
ENCODING 85
SWIDTH 963 0
DWIDTH 19 0
BBX 19 30 0 -5
BITMAP
c00600
c00600
c00600
c00600
c00600
c00600
c00600
c00600
c00600
c00600
c00600
c00600
c00600
c00600
c00600
c00600
c00600
c00600
c00600
c00600
c00600
7ffc00
7ffc00
1ff000
000000
000000
000000
000000
000000
000000
ENDCHAR
STARTCHAR C126
ENCODING 86
SWIDTH 963 0
DWIDTH 19 0
BBX 19 30 0 -5
BITMAP
c00600
c00600
c00600
600c00
600c00
701c00
301800
301800
383800
383800
183000
1c7000
0c7000
0c6000
0ee000
06c000
06c000
07c000
038000
038000
038000
010000
010000
010000
000000
000000
000000
000000
000000
000000
ENDCHAR
STARTCHAR C127
ENCODING 87
SWIDTH 963 0
DWIDTH 19 0
BBX 19 30 0 -5
BITMAP
c00600
c00600
c00600
c00600
c00600
c00600
c00600
c00600
c00600
c00600
c00600
c00600
c00600
c00600
c10600
c38600
c7c600
cfe600
def600
fc7e00
f83e00
f01e00
e00e00
c00600
000000
000000
000000
000000
000000
000000
ENDCHAR
STARTCHAR C130
ENCODING 88
SWIDTH 963 0
DWIDTH 19 0
BBX 19 30 0 -5
BITMAP
c00600
c00600
e00e00
600c00
701c00
301800
383800
183000
1c7000
0c6000
0fe000
0fe000
0fe000
0fe000
0c6000
1c7000
183000
383800
301800
701c00
600c00
e00e00
c00600
c00600
000000
000000
000000
000000
000000
000000
ENDCHAR
STARTCHAR C131
ENCODING 89
SWIDTH 963 0
DWIDTH 19 0
BBX 19 30 0 -5
BITMAP
800400
800400
c00c00
c00c00
e01c00
601800
703800
303000
387000
186000
1fe000
0fc000
078000
030000
030000
030000
030000
030000
030000
030000
030000
030000
030000
030000
000000
000000
000000
000000
000000
000000
ENDCHAR
STARTCHAR C132
ENCODING 90
SWIDTH 963 0
DWIDTH 19 0
BBX 19 30 0 -5
BITMAP
fffe00
fffe00
000e00
000e00
000c00
003800
003800
007000
006000
00e000
01c000
018000
030000
070000
0e0000
0c0000
1c0000
380000
380000
600000
e00000
e00000
fffe00
fffe00
000000
000000
000000
000000
000000
000000
ENDCHAR
STARTCHAR C133
ENCODING 91
SWIDTH 963 0
DWIDTH 19 0
BBX 19 30 0 -5
BITMAP
fe0000
fe0000
c00000
c00000
c00000
c00000
c00000
c00000
c00000
c00000
c00000
c00000
c00000
c00000
c00000
c00000
c00000
c00000
c00000
c00000
c00000
c00000
fe0000
fe0000
000000
000000
000000
000000
000000
000000
ENDCHAR
STARTCHAR C134
ENCODING 92
SWIDTH 963 0
DWIDTH 19 0
BBX 19 30 0 -5
BITMAP
f00000
700000
700000
380000
380000
1c0000
1c0000
0e0000
0e0000
070000
070000
038000
038000
01c000
01c000
00e000
00e000
007000
007000
003800
003800
001c00
001e00
000e00
000000
000000
000000
000000
000000
000000
ENDCHAR
STARTCHAR C135
ENCODING 93
SWIDTH 963 0
DWIDTH 19 0
BBX 19 30 0 -5
BITMAP
ff0000
ff0000
070000
070000
070000
070000
070000
070000
070000
070000
070000
070000
070000
070000
070000
070000
070000
070000
070000
070000
070000
070000
ff0000
ff0000
000000
000000
000000
000000
000000
000000
ENDCHAR
STARTCHAR C136
ENCODING 94
SWIDTH 963 0
DWIDTH 19 0
BBX 19 30 0 -5
BITMAP
008000
01c000
03e000
07f000
0e3800
1c1c00
380e00
700700
e00380
000000
000000
000000
000000
000000
000000
000000
000000
000000
000000
000000
000000
000000
000000
000000
000000
000000
000000
000000
000000
000000
ENDCHAR
STARTCHAR C137
ENCODING 95
SWIDTH 963 0
DWIDTH 19 0
BBX 19 30 0 -5
BITMAP
000000
000000
000000
000000
000000
000000
000000
000000
000000
000000
000000
000000
000000
000000
000000
000000
000000
000000
000000
000000
000000
000000
000000
000000
000000
000000
ffffe0
ffffe0
ffffe0
000000
ENDCHAR
STARTCHAR C140
ENCODING 96
SWIDTH 963 0
DWIDTH 19 0
BBX 19 30 0 -5
BITMAP
100000
300000
700000
f00000
f00000
f80000
fc0000
fc0000
780000
000000
000000
000000
000000
000000
000000
000000
000000
000000
000000
000000
000000
000000
000000
000000
000000
000000
000000
000000
000000
000000
ENDCHAR
STARTCHAR C141
ENCODING 97
SWIDTH 963 0
DWIDTH 19 0
BBX 19 30 0 -5
BITMAP
000000
000000
000000
000000
000000
000000
000000
000000
1ff800
3ffc00
700e00
700e00
000e00
003e00
00fe00
07fe00
7f0e00
f00e00
e00e00
e00e00
e01e00
e03e00
7fee00
3fce00
000000
000000
000000
000000
000000
000000
ENDCHAR
STARTCHAR C142
ENCODING 98
SWIDTH 963 0
DWIDTH 19 0
BBX 19 30 0 -5
BITMAP
000000
000000
000000
000000
e00000
e00000
e00000
e00000
e00000
e3e000
eff800
f81c00
f00c00
e00e00
e00e00
e00e00
e00e00
e00e00
e00e00
f00e00
f80c00
fffc00
eff800
e3e000
000000
000000
000000
000000
000000
000000
ENDCHAR
STARTCHAR C143
ENCODING 99
SWIDTH 963 0
DWIDTH 19 0
BBX 19 30 0 -5
BITMAP
000000
000000
000000
000000
000000
000000
000000
000000
000000
0ff000
3ff800
700e00
600e00
e00000
e00000
e00000
e00000
e00000
e00000
e00e00
600e00
700e00
3ffc00
0ff000
000000
000000
000000
000000
000000
000000
ENDCHAR
STARTCHAR C144
ENCODING 100
SWIDTH 963 0
DWIDTH 19 0
BBX 19 30 0 -5
BITMAP
000000
000000
000e00
000e00
000e00
000e00
000e00
000e00
000e00
3fce00
7ffe00
603e00
e01e00
e00e00
e00e00
e00e00
e00e00
e00e00
e00e00
e01e00
603e00
7ffe00
3fce00
000e00
000000
000000
000000
000000
000000
000000
ENDCHAR
STARTCHAR C145
ENCODING 101
SWIDTH 963 0
DWIDTH 19 0
BBX 19 30 0 -5
BITMAP
000000
000000
000000
000000
000000
000000
000000
000000
000000
0fe000
3ff800
701800
600c00
e00e00
e00e00
fffe00
fffe00
e00000
e00000
e00e00
600e00
700e00
3ff800
0ff000
000000
000000
000000
000000
000000
000000
ENDCHAR
STARTCHAR C146
ENCODING 102
SWIDTH 963 0
DWIDTH 19 0
BBX 19 30 0 -5
BITMAP
000000
000000
03e000
07e000
0fe000
0c0000
0c0000
0c0000
0c0000
ffe000
ffe000
ffe000
0c0000
0c0000
0c0000
0c0000
0c0000
0c0000
0c0000
0c0000
0c0000
0c0000
0c0000
0c0000
000000
000000
000000
000000
000000
000000
ENDCHAR
STARTCHAR C147
ENCODING 103
SWIDTH 963 0
DWIDTH 19 0
BBX 19 30 0 -5
BITMAP
000000
000000
000000
000000
000000
000000
000000
000000
000e00
1fce00
7ffe00
703e00
e01e00
e00e00
e00e00
e00e00
e00e00
e00e00
e00e00
e01e00
603e00
7ffe00
3fce00
0f0e00
000e00
000e00
701c00
7ff800
7ff800
1fe000
ENDCHAR
STARTCHAR C150
ENCODING 104
SWIDTH 963 0
DWIDTH 19 0
BBX 19 30 0 -5
BITMAP
000000
000000
c00000
c00000
c00000
c00000
c00000
c00000
c00000
cff000
fff800
f01800
e00c00
c00c00
c00c00
c00c00
c00c00
c00c00
c00c00
c00c00
c00c00
c00c00
c00c00
c00c00
000000
000000
000000
000000
000000
000000
ENDCHAR
STARTCHAR C151
ENCODING 105
SWIDTH 963 0
DWIDTH 19 0
BBX 19 30 0 -5
BITMAP
000000
e00000
e00000
e00000
e00000
000000
000000
000000
600000
600000
600000
600000
600000
600000
600000
600000
600000
600000
600000
600000
600000
600000
600000
600000
000000
000000
000000
000000
000000
000000
ENDCHAR
STARTCHAR C152
ENCODING 106
SWIDTH 963 0
DWIDTH 19 0
BBX 19 30 0 -5
BITMAP
000000
000000
0f0000
0f0000
0f0000
0f0000
000000
000000
000000
070000
070000
070000
070000
070000
070000
070000
070000
070000
070000
070000
070000
070000
070000
070000
070000
070000
070000
7e0000
fc0000
f80000
ENDCHAR
STARTCHAR C153
ENCODING 107
SWIDTH 963 0
DWIDTH 19 0
BBX 19 30 0 -5
BITMAP
000000
000000
c00000
c00000
c00000
c00000
c00000
c00000
c00000
c0e000
c3c000
c78000
cf0000
de0000
fe0000
ff0000
ff8000
c3c000
c1e000
c0f000
c07800
c03c00
c01c00
c00c00
000000
000000
000000
000000
000000
000000
ENDCHAR
STARTCHAR C154
ENCODING 108
SWIDTH 963 0
DWIDTH 19 0
BBX 19 30 0 -5
BITMAP
000000
c00000
c00000
c00000
c00000
c00000
c00000
c00000
c00000
c00000
c00000
c00000
c00000
c00000
c00000
c00000
c00000
c00000
c00000
c00000
c00000
c00000
c00000
c00000
000000
000000
000000
000000
000000
000000
ENDCHAR
STARTCHAR C155
ENCODING 109
SWIDTH 963 0
DWIDTH 19 0
BBX 19 30 0 -5
BITMAP
000000
000000
000000
000000
000000
000000
000000
c00000
c00000
de7800
fefc00
c30c00
c30c00
c30c00
c30c00
c30c00
c30c00
c30c00
c30c00
c30c00
c30c00
c30c00
c30c00
c30c00
000000
000000
000000
000000
000000
000000
ENDCHAR
STARTCHAR C156
ENCODING 110
SWIDTH 963 0
DWIDTH 19 0
BBX 19 30 0 -5
BITMAP
000000
000000
000000
000000
000000
000000
000000
000000
c00000
cff000
fffc00
f01c00
e00c00
c00c00
c00c00
c00c00
c00c00
c00c00
c00c00
c00c00
c00c00
c00c00
c00c00
c00c00
000000
000000
000000
000000
000000
000000
ENDCHAR
STARTCHAR C157
ENCODING 111
SWIDTH 963 0
DWIDTH 19 0
BBX 19 30 0 -5
BITMAP
000000
000000
000000
000000
000000
000000
000000
000000
000000
1fe000
3ff000
703800
e01c00
e01c00
e01c00
e01c00
e01c00
e01c00
e01c00
e01c00
e01c00
703800
3ff000
1fe000
000000
000000
000000
000000
000000
000000
ENDCHAR
STARTCHAR C160
ENCODING 112
SWIDTH 963 0
DWIDTH 19 0
BBX 19 30 0 -5
BITMAP
000000
000000
000000
000000
000000
000000
000000
e00000
e00000
e7f800
fffc00
f00c00
e00e00
e00e00
e00e00
e00e00
e00e00
e00e00
e00e00
f00e00
f80c00
fe1c00
e7f800
e1e000
e00000
e00000
e00000
e00000
e00000
e00000
ENDCHAR
STARTCHAR C161
ENCODING 113
SWIDTH 963 0
DWIDTH 19 0
BBX 19 30 0 -5
BITMAP
000000
000000
000000
000000
000000
000000
000000
000000
000e00
3fce00
7ffe00
603e00
e01e00
e00e00
e00e00
e00e00
e00e00
e00e00
e00e00
e01e00
603e00
7ffe00
3fce00
000e00
000e00
000e00
000e00
000e00
000e00
000e00
ENDCHAR
STARTCHAR C162
ENCODING 114
SWIDTH 963 0
DWIDTH 19 0
BBX 19 30 0 -5
BITMAP
000000
000000
000000
000000
000000
000000
000000
000000
e00000
e7e000
fff800
fc3c00
f01c00
e00000
e00000
e00000
e00000
e00000
e00000
e00000
e00000
e00000
e00000
e00000
000000
000000
000000
000000
000000
000000
ENDCHAR
STARTCHAR C163
ENCODING 115
SWIDTH 963 0
DWIDTH 19 0
BBX 19 30 0 -5
BITMAP
000000
000000
000000
000000
000000
000000
000000
000000
000000
3fe000
7ff000
c01800
c01800
c00000
c00000
ffe000
7ff000
001800
001800
c01800
c01800
c01800
7ff000
3fe000
000000
000000
000000
000000
000000
000000
ENDCHAR
STARTCHAR C164
ENCODING 116
SWIDTH 963 0
DWIDTH 19 0
BBX 19 30 0 -5
BITMAP
000000
000000
0c0000
0c0000
0c0000
0c0000
0c0000
0c0000
ffe000
ffe000
ffe000
0c0000
0c0000
0c0000
0c0000
0c0000
0c0000
0c0000
0c0000
0c0000
0c0000
0fe000
07e000
03e000
000000
000000
000000
000000
000000
000000
ENDCHAR
STARTCHAR C165
ENCODING 117
SWIDTH 963 0
DWIDTH 19 0
BBX 19 30 0 -5
BITMAP
000000
000000
000000
000000
000000
000000
000000
000000
c00c00
c00c00
c00c00
c00c00
c00c00
c00c00
c00c00
c00c00
c00c00
c00c00
c00c00
c01c00
603c00
7ffc00
3fcc00
000c00
000000
000000
000000
000000
000000
000000
ENDCHAR
STARTCHAR C166
ENCODING 118
SWIDTH 963 0
DWIDTH 19 0
BBX 19 30 0 -5
BITMAP
000000
000000
000000
000000
000000
000000
000000
000000
c00c00
c00c00
c00c00
e01c00
703800
703800
387000
387000
1ce000
1ce000
0fe000
0fc000
078000
078000
030000
030000
000000
000000
000000
000000
000000
000000
ENDCHAR
STARTCHAR C167
ENCODING 119
SWIDTH 963 0
DWIDTH 19 0
BBX 19 30 0 -5
BITMAP
000000
000000
000000
000000
000000
000000
000000
000000
c00c00
c00c00
c00c00
c00c00
c00c00
c00c00
c00c00
c00c00
c00c00
c78c00
cfcc00
cccc00
f87c00
f03c00
e01c00
c00c00
000000
000000
000000
000000
000000
000000
ENDCHAR
STARTCHAR C170
ENCODING 120
SWIDTH 963 0
DWIDTH 19 0
BBX 19 30 0 -5
BITMAP
000000
000000
000000
000000
000000
000000
000000
000000
000000
800400
c00c00
e01c00
703800
387000
1fe000
0fc000
0fc000
0fc000
1fe000
387000
703800
e01c00
c00c00
800400
000000
000000
000000
000000
000000
000000
ENDCHAR
STARTCHAR C171
ENCODING 121
SWIDTH 963 0
DWIDTH 19 0
BBX 19 30 0 -5
BITMAP
000000
000000
000000
000000
000000
000000
000000
000000
c00c00
c00c00
c00c00
c00c00
c00c00
c00c00
c00c00
c00c00
c00c00
c00c00
c00c00
c01c00
607c00
7ffc00
7fdc00
0f1c00
001c00
001c00
601800
7ff800
7ff000
3fc000
ENDCHAR
STARTCHAR C172
ENCODING 122
SWIDTH 963 0
DWIDTH 19 0
BBX 19 30 0 -5
BITMAP
000000
000000
000000
000000
000000
000000
000000
000000
fffc00
fffc00
fffc00
003800
007000
00e000
01c000
038000
070000
0e0000
1c0000
380000
700000
fffc00
fffc00
fffc00
000000
000000
000000
000000
000000
000000
ENDCHAR
STARTCHAR C173
ENCODING 123
SWIDTH 963 0
DWIDTH 19 0
BBX 19 30 0 -5
BITMAP
0e0000
180000
300000
700000
700000
300000
300000
300000
300000
300000
700000
f00000
f00000
700000
300000
300000
300000
300000
300000
700000
700000
300000
180000
0e0000
000000
000000
000000
000000
000000
000000
ENDCHAR
STARTCHAR C174
ENCODING 124
SWIDTH 963 0
DWIDTH 19 0
BBX 19 30 0 -5
BITMAP
c00000
c00000
c00000
c00000
c00000
c00000
c00000
c00000
c00000
c00000
c00000
c00000
c00000
c00000
c00000
c00000
c00000
c00000
c00000
c00000
c00000
c00000
c00000
c00000
c00000
c00000
c00000
c00000
c00000
c00000
ENDCHAR
STARTCHAR C175
ENCODING 125
SWIDTH 963 0
DWIDTH 19 0
BBX 19 30 0 -5
BITMAP
e00000
300000
180000
1c0000
1c0000
180000
180000
180000
180000
180000
1c0000
1e0000
1e0000
1c0000
180000
180000
180000
180000
180000
1c0000
1c0000
180000
300000
e00000
000000
000000
000000
000000
000000
000000
ENDCHAR
STARTCHAR C176
ENCODING 126
SWIDTH 963 0
DWIDTH 19 0
BBX 19 30 0 -5
BITMAP
000000
000000
000000
000000
000000
000000
000000
000000
000000
000000
000000
000000
0e0080
1f0080
3f8180
7fc300
61ff00
c0fe00
c07c00
803800
000000
000000
000000
000000
000000
000000
000000
000000
000000
000000
ENDCHAR
STARTCHAR C177
ENCODING 127
SWIDTH 963 0
DWIDTH 19 0
BBX 19 30 0 -5
BITMAP
001e00
003f00
007300
00f300
00f300
00e000
00e000
00c000
01c000
01c000
018000
018000
018000
018000
018000
038000
038000
030000
030000
030000
030000
030000
070000
070000
ce0000
ce0000
ce0000
ce0000
7c0000
380000
ENDCHAR
ENDFONT
